<svg preserveAspectRatio="none" overflow="visible" style="display: block;" width="18" height="20" viewBox="0 0 18 20" fill="none" xmlns="http://www.w3.org/2000/svg">
<g id="_&#195;&#142;&#195;&#147;&#195;&#136;_1" clip-path="url(#clip0_0_1349)">
<path id="Vector" d="M12.7603 11.0348L11.3611 11.0628L10.2192 11.0787C9.90525 11.6383 9.32935 11.9142 8.73887 11.7936C8.17887 11.6794 7.73841 11.1855 7.64436 10.5918C7.54137 9.94007 7.81988 9.33972 8.35571 9.01454L8.37028 5.50319C8.37194 5.1227 8.74351 4.88192 9.05415 4.90213C9.37704 4.9234 9.67111 5.20567 9.67177 5.58652L9.67873 9.0195C9.9334 9.17589 10.1212 9.38404 10.2599 9.66454L12.7821 9.63298C13.1441 9.62837 13.3971 9.98369 13.3954 10.3358C13.3938 10.6879 13.1322 11.027 12.7599 11.0344L12.7603 11.0348ZM14.6168 19.933C14.9731 19.7546 15.1228 19.2656 14.8887 18.911L13.8876 17.3954C17.7404 14.3323 18.3249 8.44149 15.2182 4.59468C12.0714 0.697873 6.4909 0.511702 3.13716 4.21099C-0.287785 7.98901 0.110279 14.1365 4.09092 17.3528L3.15007 18.866C3.03218 19.0557 2.99542 19.2692 3.06596 19.4979C3.1206 19.6759 3.26499 19.8635 3.46932 19.9294C3.51933 19.9457 3.55576 19.9631 3.57662 20H3.80844C3.81705 19.9684 3.8442 19.9394 3.89123 19.9415C4.01906 19.8929 4.13696 19.8167 4.21611 19.6904L5.2063 18.1167C7.60131 19.4277 10.3414 19.4691 12.7662 18.1461L13.8114 19.7121C13.9455 19.9131 14.0952 19.9117 14.1409 20H14.5383C14.5509 19.9628 14.5737 19.9546 14.6168 19.933ZM9.01308 17.7014C5.21259 17.7014 2.13173 14.4025 2.13173 10.333C2.13173 6.26348 5.21259 2.96454 9.01308 2.96454C12.8136 2.96454 15.8944 6.26348 15.8944 10.333C15.8944 14.4025 12.8136 17.7014 9.01308 17.7014ZM2.88117 0L2.34732 0.145035C1.26142 0.434043 0.440785 1.33156 0.151344 2.49397L0.0142402 3.16028L0 4.00709C0.0996817 4.57518 0.20963 5.15248 0.439461 5.70709C1.99132 3.74858 3.78459 2.05957 5.74412 0.621631C5.23677 0.348582 4.69796 0.168794 4.12603 0.0556738C4.06675 0.0439716 4.00581 0.0368794 3.97402 0L2.88117 0ZM15.341 0.108865L14.9996 0.0439716L14.3204 0.0539007C13.6418 0.142199 13.004 0.319504 12.3761 0.660638C14.3214 2.09681 16.0623 3.73794 17.5807 5.65709C17.7973 5.12872 17.9199 4.56489 17.9987 3.9727L18 3.19681C17.7639 1.54007 16.9386 0.411702 15.341 0.108511V0.108865Z" fill="white"/>
</g>
<defs>
<clipPath id="clip0_0_1349">
<rect width="18" height="20" fill="white"/>
</clipPath>
</defs>
</svg>
